<mxfile host="app.diagrams.net" agent="Mozilla/5.0 (Windows NT 10.0; Win64; x64) AppleWebKit/537.36 (KHTML, like Gecko) Chrome/127.0.0.0 Safari/537.36" version="24.7.5">
  <diagram name="PÃ¡gina-1" id="Ep8F9bBMKTazCoBFnDx1">
    <mxGraphModel dx="656" dy="292" grid="1" gridSize="10" guides="1" tooltips="1" connect="1" arrows="1" fold="1" page="1" pageScale="1" pageWidth="827" pageHeight="1169" math="0" shadow="0">
      <root>
        <mxCell id="0" />
        <mxCell id="1" parent="0" />
        <mxCell id="Hl11qXCXUWjnZt11IVYD-52" value="" style="rounded=0;whiteSpace=wrap;html=1;shadow=0;strokeColor=default;align=center;verticalAlign=middle;fontFamily=Helvetica;fontSize=12;fontColor=default;fillColor=none;" vertex="1" parent="1">
          <mxGeometry x="360" y="110" width="30" height="30" as="geometry" />
        </mxCell>
        <mxCell id="Hl11qXCXUWjnZt11IVYD-53" value="[ 63 ]" style="text;strokeColor=none;fillColor=none;html=1;fontSize=12;fontStyle=1;verticalAlign=middle;align=center;fontFamily=Helvetica;fontColor=default;" vertex="1" parent="1">
          <mxGeometry x="360" y="80" width="30" height="30" as="geometry" />
        </mxCell>
        <mxCell id="Hl11qXCXUWjnZt11IVYD-54" value="" style="rounded=0;whiteSpace=wrap;html=1;shadow=0;strokeColor=default;align=center;verticalAlign=middle;fontFamily=Helvetica;fontSize=12;fontColor=default;fillColor=none;" vertex="1" parent="1">
          <mxGeometry x="390" y="110" width="30" height="30" as="geometry" />
        </mxCell>
        <mxCell id="Hl11qXCXUWjnZt11IVYD-55" value="[ 62 ]" style="text;strokeColor=none;fillColor=none;html=1;fontSize=12;fontStyle=1;verticalAlign=middle;align=center;fontFamily=Helvetica;fontColor=default;" vertex="1" parent="1">
          <mxGeometry x="390" y="80" width="30" height="30" as="geometry" />
        </mxCell>
        <mxCell id="Hl11qXCXUWjnZt11IVYD-56" value="" style="rounded=0;whiteSpace=wrap;html=1;shadow=0;strokeColor=default;align=center;verticalAlign=middle;fontFamily=Helvetica;fontSize=12;fontColor=default;fillColor=none;" vertex="1" parent="1">
          <mxGeometry x="420" y="110" width="30" height="30" as="geometry" />
        </mxCell>
        <mxCell id="Hl11qXCXUWjnZt11IVYD-57" value="[ 61 ]" style="text;strokeColor=none;fillColor=none;html=1;fontSize=12;fontStyle=1;verticalAlign=middle;align=center;fontFamily=Helvetica;fontColor=default;" vertex="1" parent="1">
          <mxGeometry x="420" y="80" width="30" height="30" as="geometry" />
        </mxCell>
        <mxCell id="Hl11qXCXUWjnZt11IVYD-58" value="" style="rounded=0;whiteSpace=wrap;html=1;shadow=0;strokeColor=default;align=center;verticalAlign=middle;fontFamily=Helvetica;fontSize=12;fontColor=default;fillColor=none;" vertex="1" parent="1">
          <mxGeometry x="450" y="110" width="30" height="30" as="geometry" />
        </mxCell>
        <mxCell id="Hl11qXCXUWjnZt11IVYD-59" value="[ 60 ]" style="text;strokeColor=none;fillColor=none;html=1;fontSize=12;fontStyle=1;verticalAlign=middle;align=center;fontFamily=Helvetica;fontColor=default;" vertex="1" parent="1">
          <mxGeometry x="450" y="80" width="30" height="30" as="geometry" />
        </mxCell>
        <mxCell id="Hl11qXCXUWjnZt11IVYD-60" value="" style="rounded=0;whiteSpace=wrap;html=1;shadow=0;strokeColor=default;align=center;verticalAlign=middle;fontFamily=Helvetica;fontSize=12;fontColor=default;fillColor=none;" vertex="1" parent="1">
          <mxGeometry x="680" y="110" width="30" height="30" as="geometry" />
        </mxCell>
        <mxCell id="Hl11qXCXUWjnZt11IVYD-61" value="[ 3 ]" style="text;strokeColor=none;fillColor=none;html=1;fontSize=12;fontStyle=1;verticalAlign=middle;align=center;fontFamily=Helvetica;fontColor=default;" vertex="1" parent="1">
          <mxGeometry x="680" y="80" width="30" height="30" as="geometry" />
        </mxCell>
        <mxCell id="Hl11qXCXUWjnZt11IVYD-62" value="" style="rounded=0;whiteSpace=wrap;html=1;shadow=0;strokeColor=default;align=center;verticalAlign=middle;fontFamily=Helvetica;fontSize=12;fontColor=default;fillColor=none;" vertex="1" parent="1">
          <mxGeometry x="710" y="110" width="30" height="30" as="geometry" />
        </mxCell>
        <mxCell id="Hl11qXCXUWjnZt11IVYD-63" value="[ 2 ]" style="text;strokeColor=none;fillColor=none;html=1;fontSize=12;fontStyle=1;verticalAlign=middle;align=center;fontFamily=Helvetica;fontColor=default;" vertex="1" parent="1">
          <mxGeometry x="710" y="80" width="30" height="30" as="geometry" />
        </mxCell>
        <mxCell id="Hl11qXCXUWjnZt11IVYD-64" value="" style="rounded=0;whiteSpace=wrap;html=1;shadow=0;strokeColor=default;align=center;verticalAlign=middle;fontFamily=Helvetica;fontSize=12;fontColor=default;fillColor=none;" vertex="1" parent="1">
          <mxGeometry x="740" y="110" width="30" height="30" as="geometry" />
        </mxCell>
        <mxCell id="Hl11qXCXUWjnZt11IVYD-65" value="[ 1 ]" style="text;strokeColor=none;fillColor=none;html=1;fontSize=12;fontStyle=1;verticalAlign=middle;align=center;fontFamily=Helvetica;fontColor=default;" vertex="1" parent="1">
          <mxGeometry x="740" y="80" width="30" height="30" as="geometry" />
        </mxCell>
        <mxCell id="Hl11qXCXUWjnZt11IVYD-66" value="" style="rounded=0;whiteSpace=wrap;html=1;shadow=0;strokeColor=default;align=center;verticalAlign=middle;fontFamily=Helvetica;fontSize=12;fontColor=default;fillColor=none;" vertex="1" parent="1">
          <mxGeometry x="770" y="110" width="30" height="30" as="geometry" />
        </mxCell>
        <mxCell id="Hl11qXCXUWjnZt11IVYD-67" value="[ 0 ]" style="text;strokeColor=none;fillColor=none;html=1;fontSize=12;fontStyle=1;verticalAlign=middle;align=center;fontFamily=Helvetica;fontColor=default;" vertex="1" parent="1">
          <mxGeometry x="770" y="80" width="30" height="30" as="geometry" />
        </mxCell>
        <mxCell id="Hl11qXCXUWjnZt11IVYD-68" value="" style="rounded=0;whiteSpace=wrap;html=1;shadow=0;strokeColor=default;align=center;verticalAlign=middle;fontFamily=Helvetica;fontSize=12;fontColor=default;fillColor=none;" vertex="1" parent="1">
          <mxGeometry x="510" y="110" width="30" height="30" as="geometry" />
        </mxCell>
        <mxCell id="Hl11qXCXUWjnZt11IVYD-69" value="[ 33 ]" style="text;strokeColor=none;fillColor=none;html=1;fontSize=12;fontStyle=1;verticalAlign=middle;align=center;fontFamily=Helvetica;fontColor=default;" vertex="1" parent="1">
          <mxGeometry x="510" y="80" width="30" height="30" as="geometry" />
        </mxCell>
        <mxCell id="Hl11qXCXUWjnZt11IVYD-70" value="" style="rounded=0;whiteSpace=wrap;html=1;shadow=0;strokeColor=default;align=center;verticalAlign=middle;fontFamily=Helvetica;fontSize=12;fontColor=default;fillColor=none;" vertex="1" parent="1">
          <mxGeometry x="540" y="110" width="30" height="30" as="geometry" />
        </mxCell>
        <mxCell id="Hl11qXCXUWjnZt11IVYD-71" value="[ 32 ]" style="text;strokeColor=none;fillColor=none;html=1;fontSize=12;fontStyle=1;verticalAlign=middle;align=center;fontFamily=Helvetica;fontColor=default;" vertex="1" parent="1">
          <mxGeometry x="540" y="80" width="30" height="30" as="geometry" />
        </mxCell>
        <mxCell id="Hl11qXCXUWjnZt11IVYD-72" value="" style="rounded=0;whiteSpace=wrap;html=1;shadow=0;strokeColor=default;align=center;verticalAlign=middle;fontFamily=Helvetica;fontSize=12;fontColor=default;fillColor=none;" vertex="1" parent="1">
          <mxGeometry x="580" y="110" width="30" height="30" as="geometry" />
        </mxCell>
        <mxCell id="Hl11qXCXUWjnZt11IVYD-73" value="[ 31 ]" style="text;strokeColor=none;fillColor=none;html=1;fontSize=12;fontStyle=1;verticalAlign=middle;align=center;fontFamily=Helvetica;fontColor=default;" vertex="1" parent="1">
          <mxGeometry x="580" y="80" width="30" height="30" as="geometry" />
        </mxCell>
        <mxCell id="Hl11qXCXUWjnZt11IVYD-74" value="" style="rounded=0;whiteSpace=wrap;html=1;shadow=0;strokeColor=default;align=center;verticalAlign=middle;fontFamily=Helvetica;fontSize=12;fontColor=default;fillColor=none;" vertex="1" parent="1">
          <mxGeometry x="610" y="110" width="30" height="30" as="geometry" />
        </mxCell>
        <mxCell id="Hl11qXCXUWjnZt11IVYD-75" value="[ 30 ]" style="text;strokeColor=none;fillColor=none;html=1;fontSize=12;fontStyle=1;verticalAlign=middle;align=center;fontFamily=Helvetica;fontColor=default;" vertex="1" parent="1">
          <mxGeometry x="610" y="80" width="30" height="30" as="geometry" />
        </mxCell>
        <mxCell id="Hl11qXCXUWjnZt11IVYD-76" value="&lt;b&gt;&lt;font style=&quot;font-size: 18px;&quot;&gt;...&lt;/font&gt;&lt;/b&gt;" style="text;html=1;align=center;verticalAlign=middle;whiteSpace=wrap;rounded=0;fontFamily=Helvetica;fontSize=12;fontColor=default;" vertex="1" parent="1">
          <mxGeometry x="480" y="110" width="40" height="20" as="geometry" />
        </mxCell>
        <mxCell id="Hl11qXCXUWjnZt11IVYD-77" value="&lt;b&gt;&lt;font style=&quot;font-size: 18px;&quot;&gt;...&lt;/font&gt;&lt;/b&gt;" style="text;html=1;align=center;verticalAlign=middle;whiteSpace=wrap;rounded=0;fontFamily=Helvetica;fontSize=12;fontColor=default;" vertex="1" parent="1">
          <mxGeometry x="640" y="110" width="40" height="20" as="geometry" />
        </mxCell>
        <mxCell id="Hl11qXCXUWjnZt11IVYD-78" value="" style="endArrow=none;html=1;rounded=0;fontFamily=Helvetica;fontSize=12;fontColor=default;" edge="1" parent="1">
          <mxGeometry width="50" height="50" relative="1" as="geometry">
            <mxPoint x="360" y="180" as="sourcePoint" />
            <mxPoint x="360" y="150" as="targetPoint" />
          </mxGeometry>
        </mxCell>
        <mxCell id="Hl11qXCXUWjnZt11IVYD-79" value="" style="endArrow=none;html=1;rounded=0;fontFamily=Helvetica;fontSize=12;fontColor=default;" edge="1" parent="1">
          <mxGeometry width="50" height="50" relative="1" as="geometry">
            <mxPoint x="800" y="180" as="sourcePoint" />
            <mxPoint x="800" y="150" as="targetPoint" />
            <Array as="points">
              <mxPoint x="800.4" y="150" />
            </Array>
          </mxGeometry>
        </mxCell>
        <mxCell id="Hl11qXCXUWjnZt11IVYD-80" value="" style="endArrow=none;html=1;rounded=0;fontFamily=Helvetica;fontSize=12;fontColor=default;" edge="1" parent="1">
          <mxGeometry width="50" height="50" relative="1" as="geometry">
            <mxPoint x="360" y="180" as="sourcePoint" />
            <mxPoint x="570" y="180" as="targetPoint" />
          </mxGeometry>
        </mxCell>
        <mxCell id="Hl11qXCXUWjnZt11IVYD-81" value="" style="endArrow=none;html=1;rounded=0;fontFamily=Helvetica;fontSize=12;fontColor=default;" edge="1" parent="1">
          <mxGeometry width="50" height="50" relative="1" as="geometry">
            <mxPoint x="580" y="180" as="sourcePoint" />
            <mxPoint x="580" y="150" as="targetPoint" />
          </mxGeometry>
        </mxCell>
        <mxCell id="Hl11qXCXUWjnZt11IVYD-82" value="" style="endArrow=none;html=1;rounded=0;fontFamily=Helvetica;fontSize=12;fontColor=default;" edge="1" parent="1">
          <mxGeometry width="50" height="50" relative="1" as="geometry">
            <mxPoint x="570" y="180" as="sourcePoint" />
            <mxPoint x="570" y="150" as="targetPoint" />
          </mxGeometry>
        </mxCell>
        <mxCell id="Hl11qXCXUWjnZt11IVYD-83" value="" style="endArrow=none;html=1;rounded=0;fontFamily=Helvetica;fontSize=12;fontColor=default;" edge="1" parent="1">
          <mxGeometry width="50" height="50" relative="1" as="geometry">
            <mxPoint x="580" y="180" as="sourcePoint" />
            <mxPoint x="800" y="180" as="targetPoint" />
          </mxGeometry>
        </mxCell>
        <mxCell id="Hl11qXCXUWjnZt11IVYD-84" value="" style="endArrow=none;html=1;rounded=0;fontFamily=Helvetica;fontSize=12;fontColor=default;" edge="1" parent="1">
          <mxGeometry width="50" height="50" relative="1" as="geometry">
            <mxPoint x="579.61" y="410" as="sourcePoint" />
            <mxPoint x="579.61" y="380" as="targetPoint" />
          </mxGeometry>
        </mxCell>
        <mxCell id="Hl11qXCXUWjnZt11IVYD-85" value="" style="endArrow=none;html=1;rounded=0;fontFamily=Helvetica;fontSize=12;fontColor=default;" edge="1" parent="1">
          <mxGeometry width="50" height="50" relative="1" as="geometry">
            <mxPoint x="804.76" y="410" as="sourcePoint" />
            <mxPoint x="804.76" y="380" as="targetPoint" />
          </mxGeometry>
        </mxCell>
        <mxCell id="Hl11qXCXUWjnZt11IVYD-86" value="" style="endArrow=none;html=1;rounded=0;fontFamily=Helvetica;fontSize=12;fontColor=default;" edge="1" parent="1">
          <mxGeometry width="50" height="50" relative="1" as="geometry">
            <mxPoint x="580" y="410" as="sourcePoint" />
            <mxPoint x="805.24" y="410" as="targetPoint" />
          </mxGeometry>
        </mxCell>
        <mxCell id="Hl11qXCXUWjnZt11IVYD-87" value="32 Bits" style="text;html=1;align=center;verticalAlign=middle;whiteSpace=wrap;rounded=0;fontFamily=Helvetica;fontSize=12;fontColor=default;" vertex="1" parent="1">
          <mxGeometry x="435" y="150" width="60" height="30" as="geometry" />
        </mxCell>
        <mxCell id="Hl11qXCXUWjnZt11IVYD-88" value="32 Bits" style="text;html=1;align=center;verticalAlign=middle;whiteSpace=wrap;rounded=0;fontFamily=Helvetica;fontSize=12;fontColor=default;" vertex="1" parent="1">
          <mxGeometry x="660" y="150" width="60" height="30" as="geometry" />
        </mxCell>
        <mxCell id="Hl11qXCXUWjnZt11IVYD-129" value="&lt;div style=&quot;color: rgb(204, 204, 204); background-color: rgb(31, 31, 31); font-family: Consolas, &amp;quot;Courier New&amp;quot;, monospace; font-size: 14px; line-height: 19px; white-space: pre;&quot;&gt;GPIO_OUT_W1TC_REG&lt;/div&gt;" style="text;html=1;align=center;verticalAlign=middle;whiteSpace=wrap;rounded=0;fontFamily=Helvetica;fontSize=12;fontColor=default;" vertex="1" parent="1">
          <mxGeometry x="580" y="180" width="220" height="30" as="geometry" />
        </mxCell>
        <mxCell id="Hl11qXCXUWjnZt11IVYD-130" value="&lt;div style=&quot;color: rgb(204, 204, 204); background-color: rgb(31, 31, 31); font-family: Consolas, &amp;quot;Courier New&amp;quot;, monospace; font-size: 14px; line-height: 19px; white-space: pre;&quot;&gt;GPIO_OUT1_W1TC_REG&lt;/div&gt;" style="text;html=1;align=center;verticalAlign=middle;whiteSpace=wrap;rounded=0;fontFamily=Helvetica;fontSize=12;fontColor=default;" vertex="1" parent="1">
          <mxGeometry x="360.48" y="180" width="209.52" height="30" as="geometry" />
        </mxCell>
        <mxCell id="Hl11qXCXUWjnZt11IVYD-132" value="MÃ¡scara de bit &amp;gt;&amp;gt; 32" style="text;html=1;align=center;verticalAlign=middle;whiteSpace=wrap;rounded=0;fontFamily=Helvetica;fontSize=12;fontColor=default;" vertex="1" parent="1">
          <mxGeometry x="414.28" y="260" width="129.52" height="30" as="geometry" />
        </mxCell>
        <mxCell id="Hl11qXCXUWjnZt11IVYD-135" value="MÃ¡scara de bit" style="text;html=1;align=center;verticalAlign=middle;whiteSpace=wrap;rounded=0;fontFamily=Helvetica;fontSize=12;fontColor=default;" vertex="1" parent="1">
          <mxGeometry x="639.28" y="260" width="129.52" height="30" as="geometry" />
        </mxCell>
        <mxCell id="Hl11qXCXUWjnZt11IVYD-141" value="" style="curved=1;endArrow=classic;html=1;rounded=0;fontFamily=Helvetica;fontSize=12;fontColor=default;exitX=0;exitY=0.5;exitDx=0;exitDy=0;" edge="1" parent="1">
          <mxGeometry width="50" height="50" relative="1" as="geometry">
            <mxPoint x="474.32016" y="290" as="sourcePoint" />
            <mxPoint x="640" y="380" as="targetPoint" />
            <Array as="points">
              <mxPoint x="490" y="340" />
              <mxPoint x="550" y="350" />
              <mxPoint x="630" y="340" />
            </Array>
          </mxGeometry>
        </mxCell>
        <mxCell id="Hl11qXCXUWjnZt11IVYD-145" value="&lt;font style=&quot;font-size: 24px;&quot;&gt;gpio_bit_mask&lt;/font&gt;" style="text;html=1;align=center;verticalAlign=middle;whiteSpace=wrap;rounded=0;fontFamily=Helvetica;fontSize=12;fontColor=default;" vertex="1" parent="1">
          <mxGeometry x="345" y="50" width="440" height="30" as="geometry" />
        </mxCell>
        <mxCell id="Hl11qXCXUWjnZt11IVYD-146" value="&lt;h1 style=&quot;margin-top: 0px;&quot;&gt;Gerando pulso de ozÃ´nio&lt;/h1&gt;&lt;p&gt;Na linha 16, Ã© criada uma mÃ¡scara de bits para o pino GPIO selecionado para gerar o pulso de ozÃ´nio. Nas linhas 21 e 23, os pinos sÃ£o limpos. Na linha 26, hÃ¡ um bloqueio com um delay da duraÃ§Ã£o do pulso previamente determinado. Finalmente, nas linhas 29 e 31, os registradores sÃ£o configurados.&lt;/p&gt;&lt;p&gt;Como hÃ¡ mais de 32 pinos GPIO, sÃ£o usados dois registradores para atender Ã  quantidade de pinos. Portanto, Ã© necessÃ¡rio limpar e configurar os registradores duas vezes: uma vez para os bits menos significativos e outra para os bits mais significativos, que sÃ£o deslocados 32 posiÃ§Ãµes.&amp;nbsp;&lt;/p&gt;&lt;p&gt;&lt;br&gt;&lt;/p&gt;&lt;p&gt;A macro com o prefixo \verb|GPIO_OUT1| corresponde aos bits mais significativos, enquanto o prefixo&amp;nbsp;&amp;nbsp;\verb|GPIO_OUT| corresponde aos bits menos significativos. Na Figura \ref{fig:&lt;span style=&quot;background-color: initial;&quot;&gt;ozone_pulse_reg&lt;/span&gt;&lt;span style=&quot;background-color: initial;&quot;&gt;} Ã© possÃ­vel visualizar com maior clareza como os registradores sÃ£o distribuÃ­dos na mÃ¡scara de bits. E porque se faz necessÃ¡rio o deslocamento dos bits mais significativos.&lt;/span&gt;&lt;/p&gt;" style="text;html=1;whiteSpace=wrap;overflow=hidden;rounded=0;fontFamily=Helvetica;fontSize=12;fontColor=default;" vertex="1" parent="1">
          <mxGeometry y="50" width="300" height="410" as="geometry" />
        </mxCell>
        <mxCell id="Hl11qXCXUWjnZt11IVYD-147" value="&lt;div style=&quot;color: rgb(204, 204, 204); background-color: rgb(31, 31, 31); font-family: Consolas, &amp;quot;Courier New&amp;quot;, monospace; font-size: 14px; line-height: 19px; white-space: pre;&quot;&gt;GPIO_OUT1_W1TS_REG&lt;/div&gt;" style="text;html=1;align=center;verticalAlign=middle;whiteSpace=wrap;rounded=0;fontFamily=Helvetica;fontSize=12;fontColor=default;" vertex="1" parent="1">
          <mxGeometry x="360" y="210" width="209.52" height="30" as="geometry" />
        </mxCell>
        <mxCell id="Hl11qXCXUWjnZt11IVYD-150" value="&lt;div style=&quot;color: rgb(204, 204, 204); background-color: rgb(31, 31, 31); font-family: Consolas, &amp;quot;Courier New&amp;quot;, monospace; font-size: 14px; line-height: 19px; white-space: pre;&quot;&gt;GPIO_OUT_W1TS_REG&lt;/div&gt;" style="text;html=1;align=center;verticalAlign=middle;whiteSpace=wrap;rounded=0;fontFamily=Helvetica;fontSize=12;fontColor=default;" vertex="1" parent="1">
          <mxGeometry x="580" y="210" width="220" height="30" as="geometry" />
        </mxCell>
        <mxCell id="Hl11qXCXUWjnZt11IVYD-151" value="" style="curved=1;endArrow=classic;html=1;rounded=0;fontFamily=Helvetica;fontSize=12;fontColor=default;exitX=1;exitY=0.5;exitDx=0;exitDy=0;entryX=1;entryY=0.5;entryDx=0;entryDy=0;" edge="1" parent="1">
          <mxGeometry width="50" height="50" relative="1" as="geometry">
            <mxPoint x="409.03999999999996" y="300" as="sourcePoint" />
            <mxPoint x="330" y="345" as="targetPoint" />
            <Array as="points">
              <mxPoint x="399.03999999999996" y="330" />
              <mxPoint x="349.03999999999996" y="330" />
            </Array>
          </mxGeometry>
        </mxCell>
        <mxCell id="Hl11qXCXUWjnZt11IVYD-153" value="REG_WRITE()" style="text;html=1;align=center;verticalAlign=middle;whiteSpace=wrap;rounded=0;fontFamily=Helvetica;fontSize=12;fontColor=default;" vertex="1" parent="1">
          <mxGeometry x="430" y="380" width="129.52" height="30" as="geometry" />
        </mxCell>
      </root>
    </mxGraphModel>
  </diagram>
</mxfile>
